<?xml version="1.0" encoding="UTF-8"?>
<svg width="25px" height="24px" viewBox="0 0 25 24" version="1.1" xmlns="http://www.w3.org/2000/svg" xmlns:xlink="http://www.w3.org/1999/xlink">
    <title>bookmarks copy 29</title>
    <g id="Cocktails" stroke="none" stroke-width="1" fill="none" fill-rule="evenodd">
        <g id="Cocktails-Copy-19" transform="translate(-242.25, -649)">
            <g id="tab-bar-copy" transform="translate(0, 641)">
                <g id="bookmarks" transform="translate(224.75, 8)">
                    <g id="icon" transform="translate(17.5, 0)">
                        <polygon id="Shape" points="0.75 0 24.75 0 24.75 24 0.75 24"></polygon>
                        <path d="M18.75,2 L6.75,2 C5.65,2 4.75,2.9 4.75,4 L4.75,20 C4.75,21.1 5.65,22 6.75,22 L18.75,22 C19.85,22 20.75,21.1 20.75,20 L20.75,4 C20.75,2.9 19.85,2 18.75,2 Z M6.75,4 L11.75,4 L11.75,12 L9.25,10.5 L6.75,12 L6.75,4 Z" id="Shape" fill="#123742" fill-rule="nonzero"></path>
                    </g>
                </g>
            </g>
        </g>
    </g>
</svg>