<?xml version="1.0" encoding="UTF-8"?>
<svg width="27px" height="26px" viewBox="0 0 27 26" version="1.1" xmlns="http://www.w3.org/2000/svg" xmlns:xlink="http://www.w3.org/1999/xlink">
    <title>Combined Shape</title>
    <g id="Cocktails" stroke="none" stroke-width="1" fill="none" fill-rule="evenodd">
        <g id="Options" transform="translate(-31, -238)" fill="#F0B59E" fill-rule="nonzero">
            <g id="sort" transform="translate(12, 124)">
                <g id="selected" transform="translate(18.9979, 114)">
                    <path d="M13.0270833,0 C16.49375,0 19.74375,1.3 22.2354167,3.79166667 C27.3270833,8.88333333 27.3270833,17.1166667 22.2354167,22.2083333 C19.74375,24.7 16.49375,26 13.0270833,26 C9.56041667,26 6.31041667,24.7 3.81875,22.2083333 C-1.27291667,17.1166667 -1.27291667,8.88333333 3.81875,3.79166667 C6.31041667,1.3 9.56041667,0 13.0270833,0 Z M13.0270833,8 C11.696522,8 10.4491208,8.5 9.4927798,9.45833333 C7.53851784,11.4166667 7.53851784,14.5833333 9.4927798,16.5416667 C10.4491208,17.5 11.696522,18 13.0270833,18 C14.3576447,18 15.6050459,17.5 16.5613869,16.5416667 C18.5156488,14.5833333 18.5156488,11.4166667 16.5613869,9.45833333 C15.6050459,8.5 14.3576447,8 13.0270833,8 Z" id="Combined-Shape"></path>
                </g>
            </g>
        </g>
    </g>
</svg>