<?xml version="1.0" encoding="UTF-8"?>
<svg width="27px" height="26px" viewBox="0 0 27 26" version="1.1" xmlns="http://www.w3.org/2000/svg" xmlns:xlink="http://www.w3.org/1999/xlink">
    <title>unchecked</title>
    <g id="Cocktails" stroke="none" stroke-width="1" fill="none" fill-rule="evenodd">
        <g id="Options" transform="translate(-31, -238)" fill-rule="nonzero">
            <g id="sort" transform="translate(12, 124)">
                <g id="filter-item" transform="translate(18.9979, 114)">
                    <g id="unchecked" transform="translate(1.0021, 1)">
                        <path d="M12.025,24 C8.825,24 5.825,22.8 3.525,20.5 C-1.175,15.8 -1.175,8.2 3.525,3.5 C5.825,1.2 8.825,0 12.025,0 C15.225,0 18.225,1.2 20.525,3.5 C25.225,8.2 25.225,15.8 20.525,20.5 C18.225,22.8 15.225,24 12.025,24 Z" id="Path" stroke="#F0B59E" stroke-width="2"></path>
                        <path d="M12.025,20 C9.89166667,20 7.89166667,19.2 6.35833333,17.6666667 C3.225,14.5333333 3.225,9.46666667 6.35833333,6.33333333 C7.89166667,4.8 9.89166667,4 12.025,4 C14.1583333,4 16.1583333,4.8 17.6916667,6.33333333 C20.825,9.46666667 20.825,14.5333333 17.6916667,17.6666667 C16.1583333,19.2 14.1583333,20 12.025,20 Z" id="Path" fill="#F0B59E"></path>
                    </g>
                </g>
            </g>
        </g>
    </g>
</svg>