<?xml version="1.0" encoding="UTF-8"?>
<svg width="27px" height="26px" viewBox="0 0 27 26" version="1.1" xmlns="http://www.w3.org/2000/svg" xmlns:xlink="http://www.w3.org/1999/xlink">
    <title>selected</title>
    <g id="Bar-Stock" stroke="none" stroke-width="1" fill="none" fill-rule="evenodd">
        <g id="Cocktails-Copy-19" transform="translate(-19, -600)" fill="#F0B59E" fill-rule="nonzero">
            <g id="ingredient" transform="translate(18.9979, 586)">
                <g id="selected" transform="translate(0, 14)">
                    <path d="M13.0270833,0 C16.49375,0 19.74375,1.3 22.2354167,3.79166667 C27.3270833,8.88333333 27.3270833,17.1166667 22.2354167,22.2083333 C19.74375,24.7 16.49375,26 13.0270833,26 C9.56041667,26 6.31041667,24.7 3.81875,22.2083333 C-1.27291667,17.1166667 -1.27291667,8.88333333 3.81875,3.79166667 C6.31041667,1.3 9.56041667,0 13.0270833,0 Z M16.8664583,8 L11.4799583,13.5769977 L9.13770833,11.1517434 L7.00208333,13.3630504 L11.4799583,18 L19.0020833,10.211307 L16.8664583,8 Z" id="Combined-Shape"></path>
                </g>
            </g>
        </g>
    </g>
</svg>