<?xml version="1.0" encoding="UTF-8"?>
<svg width="25px" height="24px" viewBox="0 0 25 24" version="1.1" xmlns="http://www.w3.org/2000/svg" xmlns:xlink="http://www.w3.org/1999/xlink">
    <title>settings copy 29</title>
    <g id="Cocktails" stroke="none" stroke-width="1" fill="none" fill-rule="evenodd">
        <g id="Cocktails-Copy-19" transform="translate(-308, -649)" fill="#123742" fill-rule="nonzero">
            <g id="tab-bar-copy" transform="translate(0, 641)">
                <g id="settings" transform="translate(300, 8)">
                    <g id="icon" transform="translate(8, 0)">
                        <path d="M20.1593316,12.9800474 C20.1993316,12.6600474 20.2293316,12.3400474 20.2293316,12.0000474 C20.2293316,11.6600474 20.1993316,11.3400474 20.1593316,11.0200474 L22.2693316,9.37004745 C22.4593316,9.22004745 22.5093316,8.95004745 22.3893316,8.73004745 L20.3893316,5.27004745 C20.2693316,5.05004745 19.9993316,4.97004745 19.7793316,5.05004745 L17.2893316,6.05004745 C16.7693316,5.65004745 16.2093316,5.32004745 15.5993316,5.07004745 L15.2193316,2.42004745 C15.1851002,2.1766127 14.9751378,1.99664495 14.7293316,2 L10.7293316,2 C10.4793316,2 10.2693316,2.18004745 10.2393316,2.42004745 L9.8593316,5.07004745 C9.2493316,5.32004745 8.6893316,5.66004745 8.1693316,6.05004745 L5.6793316,5.05004745 C5.4493316,4.96004745 5.1893316,5.05004745 5.0693316,5.27004745 L3.0693316,8.73004745 C2.9393316,8.95004745 2.9993316,9.22004745 3.1893316,9.37004745 L5.2993316,11.0200474 C5.2593316,11.3400474 5.2293316,11.6700474 5.2293316,12.0000474 C5.2293316,12.3300474 5.2593316,12.6600474 5.2993316,12.9800474 L3.1893316,14.6300474 C2.9993316,14.7800474 2.9493316,15.0500474 3.0693316,15.2700474 L5.0693316,18.7300474 C5.1893316,18.9500474 5.4593316,19.0300474 5.6793316,18.9500474 L8.1693316,17.9500474 C8.6893316,18.3500474 9.2493316,18.6800474 9.8593316,18.9300474 L10.2393316,21.5800474 C10.2693316,21.8200474 10.4793316,22.0000474 10.7293316,22.0000474 L14.7293316,22.0000474 C14.9793316,22.0000474 15.1893316,21.8200474 15.2193316,21.5800474 L15.5993316,18.9300474 C16.2093316,18.6800474 16.7693316,18.3400474 17.2893316,17.9500474 L19.7793316,18.9500474 C20.0093316,19.0400474 20.2693316,18.9500474 20.3893316,18.7300474 L22.3893316,15.2700474 C22.5093316,15.0500474 22.4593316,14.7800474 22.2693316,14.6300474 L20.1593316,12.9800474 L20.1593316,12.9800474 Z M12.7293316,15.5000474 C10.7993316,15.5000474 9.2293316,13.9300474 9.2293316,12.0000474 C9.2293316,10.0700474 10.7993316,8.50004745 12.7293316,8.50004745 C14.6593316,8.50004745 16.2293316,10.0700474 16.2293316,12.0000474 C16.2293316,13.9300474 14.6593316,15.5000474 12.7293316,15.5000474 Z" id="Shape"></path>
                    </g>
                </g>
            </g>
        </g>
    </g>
</svg>