<?xml version="1.0" encoding="UTF-8"?>
<svg width="17px" height="17px" viewBox="0 0 17 17" version="1.1" xmlns="http://www.w3.org/2000/svg" xmlns:xlink="http://www.w3.org/1999/xlink">
    <title>check</title>
    <g id="Bar-Stock" stroke="none" stroke-width="1" fill="none" fill-rule="evenodd">
        <g id="Cocktails-Copy-20" transform="translate(-253, -120)" fill="#F0B59E" fill-rule="nonzero">
            <g id="just-selected" transform="translate(18, 117)">
                <g id="Combined-Shape" transform="translate(235, 3)">
                    <path d="M8.5,0 C10.7619543,0 12.8825364,0.85 14.508316,2.47916667 C17.8305613,5.80833333 17.8305613,11.1916667 14.508316,14.5208333 C12.8825364,16.15 10.7619543,17 8.5,17 C6.23804574,17 4.11746362,16.15 2.49168399,14.5208333 C-0.830561331,11.1916667 -0.830561331,5.80833333 2.49168399,2.47916667 C4.11746362,0.85 6.23804574,0 8.5,0 Z M10.8946206,5.36590437 L7.53505717,8.84428134 L6.07419439,7.3316487 L4.74220374,8.71084225 L7.53505717,11.6029106 L12.2266112,6.74509791 L10.8946206,5.36590437 Z"></path>
                </g>
            </g>
        </g>
    </g>
</svg>